# xmcd
#
# Track frame offsets:
#	150
#	10850
#	20445
#	33139
#	43192
#	53921
#	69538
#	82740
#	94574
#	107313
#	120154
#	135250
#	151957
#	159708
#	171146
#	180913
#
# Disc length: 2602 seconds
#
# Revision: 2
# Processed by: cddbd v1.5.2PL0 Copyright (c) Steve Scherf et al.
# Submitted via: audiograbber 1.83.01
#
DISCID=ab0a2810
DTITLE=Various Artist - Country mania [CD 2)
DYEAR=2012
DGENRE=Country
TTITLE0=Johnny Cash - Daddy sang bass
TTITLE1=Kenny Rogers and The First Edition - Camptown ladies
TTITLE2=Ray Price - Let it rain, let her cry
TTITLE3=Johnny Cash and The Tennessee Two - Ballad of a teenage queen
TTITLE4=Ricky Nelson - Travelin' man
TTITLE5=Kenny Rogers - My Washington woman
TTITLE6=The Statler Brothers - Do you remember these
TTITLE7=Kenny Rogers - Elvira
TTITLE8=Johnny Cash - Give my love to rose
TTITLE9=Frankie LAine - High noon
TTITLE10=Kenny Rogers - Heed the call
TTITLE11=Rex Allen jr. - Memory train
TTITLE12=Johnny Cash and The Tennessee Two - If the Good Lord's willing
TTITLE13=Willie Nelson - Suffering in silence
TTITLE14=Johnny Cash and the Tennessee Two - Rock island line
TTITLE15=B. J. Thomas - I am so lonesome
EXTD=
EXTT0=
EXTT1=
EXTT2=
EXTT3=
EXTT4=
EXTT5=
EXTT6=
EXTT7=
EXTT8=
EXTT9=
EXTT10=
EXTT11=
EXTT12=
EXTT13=
EXTT14=
EXTT15=
PLAYORDER=
